<?xml version="1.0" standalone="no"?>
<!DOCTYPE svg PUBLIC "-//W3C//DTD SVG 20010904//EN"
 "http://www.w3.org/TR/2001/REC-SVG-20010904/DTD/svg10.dtd">
<svg version="1.0" xmlns="http://www.w3.org/2000/svg"
 width="200.000000pt" height="200.000000pt" viewBox="0 0 200.000000 200.000000"
 preserveAspectRatio="xMidYMid meet">
<metadata>
Created by potrace 1.14, written by Peter Selinger 2001-2017
</metadata>
<g transform="translate(0.000000,200.000000) scale(0.100000,-0.100000)"
fill="#000000" stroke="none">
<path d="M1010 1808 c-23 -37 -79 -72 -175 -109 -6 -2 -36 -20 -66 -39 l-56
-35 -63 -165 c-35 -91 -98 -248 -140 -350 l-76 -185 -3 -187 c-2 -154 1 -188
12 -195 8 -4 69 -55 135 -113 111 -96 120 -106 115 -132 l-6 -29 84 1 c49 0
118 -7 165 -18 67 -15 87 -16 115 -6 19 6 36 11 39 12 3 0 23 5 45 10 22 6 57
13 78 15 21 3 48 13 60 23 70 61 122 109 202 189 l91 90 3 101 c1 63 -4 134
-14 190 -10 49 -19 100 -22 114 -2 13 -11 56 -19 95 -9 38 -17 79 -19 90 -12
70 -37 150 -114 375 l-26 75 -142 69 c-141 69 -141 70 -154 113 -6 24 -14 43
-18 43 -3 0 -17 -19 -31 -42z"/>
</g>
</svg>
